<svg width="139" height="139" viewBox="0 0 139 139" fill="none" xmlns="http://www.w3.org/2000/svg">
<g filter="url(#filter0_d_6_7590)">
<circle cx="69.7773" cy="69.27" r="49.1709" fill="#1E1E1E"/>
</g>
<path d="M62.0746 68.6034V57.9338C62.0746 55.8115 62.9388 53.7761 64.477 52.2754C66.0152 50.7747 68.1015 49.9316 70.2768 49.9316C72.4522 49.9316 74.5384 50.7747 76.0767 52.2754C77.6149 53.7761 78.479 55.8115 78.479 57.9338V68.6034C78.479 70.7257 77.6149 72.7611 76.0767 74.2618C74.5384 75.7624 72.4522 76.6055 70.2768 76.6055C68.1015 76.6055 66.0152 75.7624 64.477 74.2618C62.9388 72.7611 62.0746 70.7257 62.0746 68.6034ZM83.9472 68.6034C83.9472 68.2496 83.8032 67.9104 83.5468 67.6603C83.2904 67.4102 82.9427 67.2697 82.5801 67.2697C82.2176 67.2697 81.8699 67.4102 81.6135 67.6603C81.3571 67.9104 81.2131 68.2496 81.2131 68.6034C81.2131 71.4331 80.0609 74.147 78.0099 76.1479C75.959 78.1488 73.1773 79.2729 70.2768 79.2729C67.3763 79.2729 64.5946 78.1488 62.5437 76.1479C60.4927 74.147 59.3405 71.4331 59.3405 68.6034C59.3405 68.2496 59.1965 67.9104 58.9401 67.6603C58.6838 67.4102 58.336 67.2697 57.9735 67.2697C57.6109 67.2697 57.2632 67.4102 57.0068 67.6603C56.7505 67.9104 56.6064 68.2496 56.6064 68.6034C56.6106 71.9085 57.8708 75.0947 60.1434 77.5459C62.416 79.9971 65.5394 81.539 68.9098 81.8736V87.2751C68.9098 87.6288 69.0538 87.968 69.3102 88.2182C69.5665 88.4683 69.9143 88.6088 70.2768 88.6088C70.6394 88.6088 70.9871 88.4683 71.2435 88.2182C71.4998 87.968 71.6439 87.6288 71.6439 87.2751V81.8736C75.0142 81.539 78.1377 79.9971 80.4102 77.5459C82.6828 75.0947 83.943 71.9085 83.9472 68.6034Z" fill="white"/>
<defs>
<filter id="filter0_d_6_7590" x="0.606445" y="0.0991211" width="138.342" height="138.342" filterUnits="userSpaceOnUse" color-interpolation-filters="sRGB">
<feFlood flood-opacity="0" result="BackgroundImageFix"/>
<feColorMatrix in="SourceAlpha" type="matrix" values="0 0 0 0 0 0 0 0 0 0 0 0 0 0 0 0 0 0 127 0" result="hardAlpha"/>
<feOffset/>
<feGaussianBlur stdDeviation="10"/>
<feComposite in2="hardAlpha" operator="out"/>
<feColorMatrix type="matrix" values="0 0 0 0 0 0 0 0 0 0 0 0 0 0 0 0 0 0 0.2 0"/>
<feBlend mode="normal" in2="BackgroundImageFix" result="effect1_dropShadow_6_7590"/>
<feBlend mode="normal" in="SourceGraphic" in2="effect1_dropShadow_6_7590" result="shape"/>
</filter>
</defs>
</svg>
