<svg width="114" height="47" viewBox="0 0 114 47" fill="none" xmlns="http://www.w3.org/2000/svg">
<path d="M14.549 41.55V42.945H1.75396V41.55H7.37896V38.475H2.59396V31.215H13.694V38.475H8.89396V41.55H14.549ZM4.07896 37.095H12.209V32.61H4.07896V37.095ZM27.3365 37.305H16.1015V31.065H27.1865V32.43H17.6165V35.94H27.3365V37.305ZM28.0115 40.215H22.3565V43.86H20.8415V40.215H15.2165V38.805H28.0115V40.215ZM39.1941 30.75H40.6791V43.56H39.1941V30.75ZM33.0741 39.09C32.3141 39.09 31.6341 38.92 31.0341 38.58C30.4341 38.24 29.9641 37.765 29.6241 37.155C29.2841 36.535 29.1141 35.835 29.1141 35.055C29.1141 34.275 29.2841 33.58 29.6241 32.97C29.9641 32.35 30.4341 31.87 31.0341 31.53C31.6341 31.19 32.3141 31.02 33.0741 31.02C33.8341 31.02 34.5141 31.19 35.1141 31.53C35.7141 31.87 36.1841 32.35 36.5241 32.97C36.8641 33.58 37.0341 34.275 37.0341 35.055C37.0341 35.835 36.8641 36.535 36.5241 37.155C36.1841 37.765 35.7141 38.24 35.1141 38.58C34.5141 38.92 33.8341 39.09 33.0741 39.09ZM33.0741 37.74C33.5741 37.74 34.0091 37.625 34.3791 37.395C34.7591 37.155 35.0541 36.835 35.2641 36.435C35.4741 36.025 35.5791 35.565 35.5791 35.055C35.5791 34.545 35.4741 34.085 35.2641 33.675C35.0541 33.265 34.7591 32.945 34.3791 32.715C33.9991 32.475 33.5641 32.355 33.0741 32.355C32.5741 32.355 32.1341 32.475 31.7541 32.715C31.3741 32.945 31.0791 33.265 30.8691 33.675C30.6691 34.085 30.5691 34.545 30.5691 35.055C30.5691 35.835 30.7991 36.48 31.2591 36.99C31.7191 37.49 32.3241 37.74 33.0741 37.74ZM28.6791 41.4H33.9141C34.8141 41.4 35.6341 41.35 36.3741 41.25C37.1141 41.15 37.6941 41 38.1141 40.8V42.18C37.6841 42.37 37.0941 42.52 36.3441 42.63C35.5941 42.74 34.7541 42.795 33.8241 42.795H28.6791V41.4ZM57.4396 30.75V43.56H55.9696V39.99H53.8096L53.9146 38.595H55.9696V35.355H53.9146L53.8096 33.96H55.9696V30.75H57.4396ZM49.6546 31.05C50.8146 31.05 51.7346 31.55 52.4146 32.55C53.0946 33.55 53.4346 35.035 53.4346 37.005C53.4346 38.975 53.0946 40.46 52.4146 41.46C51.7346 42.46 50.8146 42.96 49.6546 42.96C48.4846 42.96 47.5596 42.46 46.8796 41.46C46.1996 40.46 45.8596 38.975 45.8596 37.005C45.8596 35.035 46.1996 33.55 46.8796 32.55C47.5596 31.55 48.4846 31.05 49.6546 31.05ZM49.6546 41.595C50.3546 41.595 50.9096 41.22 51.3196 40.47C51.7396 39.72 51.9496 38.565 51.9496 37.005C51.9496 35.455 51.7396 34.305 51.3196 33.555C50.9096 32.795 50.3546 32.415 49.6546 32.415C48.9446 32.415 48.3796 32.795 47.9596 33.555C47.5396 34.305 47.3296 35.455 47.3296 37.005C47.3296 38.565 47.5396 39.72 47.9596 40.47C48.3796 41.22 48.9446 41.595 49.6546 41.595ZM65.4272 33.015H58.6172V31.875H61.3322V30.57H62.8172V31.875H65.4272V33.015ZM67.7372 38.235H66.3572V30.825H67.7372V33.75H69.7772V30.75H71.1572V38.685H69.7772V35.085H67.7372V38.235ZM65.1122 36.075C65.1122 36.785 64.8272 37.355 64.2572 37.785C63.6872 38.205 62.9672 38.415 62.0972 38.415C61.2272 38.415 60.5072 38.205 59.9372 37.785C59.3672 37.355 59.0822 36.785 59.0822 36.075C59.0822 35.365 59.3672 34.8 59.9372 34.38C60.5072 33.95 61.2272 33.735 62.0972 33.735C62.9672 33.735 63.6872 33.95 64.2572 34.38C64.8272 34.8 65.1122 35.365 65.1122 36.075ZM60.4172 36.075C60.4172 36.435 60.5722 36.735 60.8822 36.975C61.1922 37.215 61.5972 37.335 62.0972 37.335C62.5972 37.335 63.0022 37.215 63.3122 36.975C63.6222 36.735 63.7772 36.435 63.7772 36.075C63.7772 35.715 63.6222 35.415 63.3122 35.175C63.0022 34.935 62.5972 34.815 62.0972 34.815C61.5972 34.815 61.1922 34.935 60.8822 35.175C60.5722 35.415 60.4172 35.715 60.4172 36.075ZM65.5922 38.94C67.3122 38.94 68.6922 39.125 69.7322 39.495C70.7822 39.855 71.3072 40.44 71.3072 41.25C71.3072 42.05 70.7822 42.635 69.7322 43.005C68.6922 43.375 67.3122 43.56 65.5922 43.56C63.8722 43.56 62.4872 43.375 61.4372 43.005C60.3972 42.635 59.8772 42.05 59.8772 41.25C59.8772 40.44 60.3972 39.855 61.4372 39.495C62.4872 39.125 63.8722 38.94 65.5922 38.94ZM65.5922 42.405C66.8022 42.405 67.7972 42.305 68.5772 42.105C69.3572 41.915 69.7472 41.63 69.7472 41.25C69.7472 40.87 69.3572 40.585 68.5772 40.395C67.7972 40.195 66.8022 40.095 65.5922 40.095C64.3822 40.095 63.3872 40.195 62.6072 40.395C61.8272 40.585 61.4372 40.87 61.4372 41.25C61.4372 41.63 61.8272 41.915 62.6072 42.105C63.3872 42.305 64.3822 42.405 65.5922 42.405Z" fill="black"/>
<path d="M21.015 19.152V22.628H2.00696V19.152H9.61896V16.116H3.04096V4.94H19.981V16.116H13.403V19.152H21.015ZM6.73696 12.662H16.285V8.416H6.73696V12.662ZM31.8389 8.328H21.7629V5.622H25.0409V4.214H28.7369V5.622H31.8389V8.328ZM35.9749 15.434H32.6089V4.588H35.9749V8.328H37.4929V4.5H40.9029V16.094H37.4929V11.628H35.9749V15.434ZM31.5749 12.288C31.5749 12.992 31.3696 13.6153 30.9589 14.158C30.5483 14.686 29.9909 15.0967 29.2869 15.39C28.5829 15.6687 27.7983 15.808 26.9329 15.808C26.0676 15.808 25.2829 15.6687 24.5789 15.39C23.8749 15.0967 23.3176 14.686 22.9069 14.158C22.4963 13.6153 22.2909 12.992 22.2909 12.288C22.2909 11.584 22.4963 10.968 22.9069 10.44C23.3176 9.89733 23.8749 9.48667 24.5789 9.208C25.2829 8.91467 26.0676 8.768 26.9329 8.768C27.7983 8.768 28.5829 8.91467 29.2869 9.208C29.9909 9.48667 30.5483 9.89733 30.9589 10.44C31.3696 10.968 31.5749 11.584 31.5749 12.288ZM25.5249 12.288C25.5249 12.5813 25.6569 12.816 25.9209 12.992C26.1996 13.168 26.5369 13.256 26.9329 13.256C27.3289 13.256 27.6589 13.168 27.9229 12.992C28.2016 12.816 28.3409 12.5813 28.3409 12.288C28.3409 11.9947 28.2016 11.76 27.9229 11.584C27.6589 11.408 27.3289 11.32 26.9329 11.32C26.5369 11.32 26.1996 11.408 25.9209 11.584C25.6569 11.76 25.5249 11.9947 25.5249 12.288ZM32.1469 16.116C34.8603 16.116 37.0163 16.4093 38.6149 16.996C40.2136 17.5827 41.0129 18.5213 41.0129 19.812C41.0129 21.1027 40.2136 22.0413 38.6149 22.628C37.0163 23.2147 34.8603 23.508 32.1469 23.508C29.4336 23.508 27.2776 23.2147 25.6789 22.628C24.0803 22.0413 23.2809 21.1027 23.2809 19.812C23.2809 18.5213 24.0803 17.5827 25.6789 16.996C27.2776 16.4093 29.4336 16.116 32.1469 16.116ZM32.1469 20.736C33.5843 20.736 34.7649 20.6627 35.6889 20.516C36.6276 20.3547 37.0969 20.12 37.0969 19.812C37.0969 19.504 36.6276 19.2767 35.6889 19.13C34.7649 18.9687 33.5843 18.888 32.1469 18.888C30.7096 18.888 29.5216 18.9687 28.5829 19.13C27.6589 19.2767 27.1969 19.504 27.1969 19.812C27.1969 20.12 27.6589 20.3547 28.5829 20.516C29.5216 20.6627 30.7096 20.736 32.1469 20.736Z" fill="black"/>
</svg>
