<svg width="37" height="36" viewBox="0 0 37 36" fill="none" xmlns="http://www.w3.org/2000/svg">
<rect x="0.565186" width="36" height="36" rx="18" fill="#1E1E1E"/>
<g clip-path="url(#clip0_450_3051)">
<path d="M25.4402 11.75V24.25C25.4402 24.5815 25.3085 24.8995 25.0741 25.1339C24.8396 25.3683 24.5217 25.5 24.1902 25.5H21.0652C20.7337 25.5 20.4157 25.3683 20.1813 25.1339C19.9469 24.8995 19.8152 24.5815 19.8152 24.25V11.75C19.8152 11.4185 19.9469 11.1005 20.1813 10.8661C20.4157 10.6317 20.7337 10.5 21.0652 10.5H24.1902C24.5217 10.5 24.8396 10.6317 25.0741 10.8661C25.3085 11.1005 25.4402 11.4185 25.4402 11.75ZM16.0652 10.5H12.9402C12.6087 10.5 12.2907 10.6317 12.0563 10.8661C11.8219 11.1005 11.6902 11.4185 11.6902 11.75V24.25C11.6902 24.5815 11.8219 24.8995 12.0563 25.1339C12.2907 25.3683 12.6087 25.5 12.9402 25.5H16.0652C16.3967 25.5 16.7146 25.3683 16.9491 25.1339C17.1835 24.8995 17.3152 24.5815 17.3152 24.25V11.75C17.3152 11.4185 17.1835 11.1005 16.9491 10.8661C16.7146 10.6317 16.3967 10.5 16.0652 10.5Z" fill="white"/>
</g>
<defs>
<clipPath id="clip0_450_3051">
<rect width="20" height="20" fill="white" transform="translate(8.56519 8)"/>
</clipPath>
</defs>
</svg>
