<svg width="27" height="32" viewBox="0 0 27 32" fill="none" xmlns="http://www.w3.org/2000/svg">
<path d="M5.66431 12.894C5.66431 11.1119 6.0221 9.40287 6.67181 7.88821M8.98647 4.45458C10.6354 2.83323 12.7066 1.9644 14.8354 2.00112C16.9642 2.03784 19.0139 2.97776 20.6236 4.65533C22.2332 6.3329 23.2996 8.64051 23.6348 11.1717C23.97 13.7029 23.5525 16.2953 22.456 18.4923C22.1999 18.9034 21.927 19.2988 21.6383 19.6773M18.9969 22.7253C18.269 23.7844 17.692 24.9815 17.2893 26.2678C16.8885 27.1797 16.3251 27.9737 15.6396 28.5928C14.954 29.2119 14.1633 29.6408 13.3239 29.8489C12.4845 30.0569 11.6173 30.0389 10.7844 29.7962C9.95145 29.5535 9.17341 29.092 8.50597 28.4449" stroke="black" stroke-width="2.5" stroke-linecap="round" stroke-linejoin="round"/>
<path d="M12.6651 8.87245C13.4078 8.318 14.2843 8.08203 15.1523 8.20284C16.0204 8.32366 16.8291 8.79418 17.447 9.538C18.065 10.2818 18.456 11.2553 18.5566 12.3004C18.6572 13.3454 18.4614 14.4007 18.001 15.295M1.78931 2.0083L25.0393 29.9998" stroke="black" stroke-width="2.5" stroke-linecap="round" stroke-linejoin="round"/>
</svg>
