<svg width="37" height="36" viewBox="0 0 37 36" fill="none" xmlns="http://www.w3.org/2000/svg">
<rect x="0.678955" width="36" height="36" rx="18" fill="#1E1E1E"/>
<path d="M26.804 17.0002V23.2502C26.804 24.079 26.4747 24.8739 25.8887 25.4599C25.3026 26.046 24.5078 26.3752 23.679 26.3752H19.304C19.1382 26.3752 18.9792 26.3094 18.862 26.1922C18.7448 26.075 18.679 25.916 18.679 25.7502C18.679 25.5845 18.7448 25.4255 18.862 25.3083C18.9792 25.1911 19.1382 25.1252 19.304 25.1252H23.679C24.1762 25.1252 24.6532 24.9277 25.0048 24.5761C25.3564 24.2244 25.554 23.7475 25.554 23.2502H23.679C23.1817 23.2502 22.7048 23.0527 22.3531 22.7011C22.0015 22.3494 21.804 21.8725 21.804 21.3752V18.2502C21.804 17.7529 22.0015 17.276 22.3531 16.9244C22.7048 16.5728 23.1817 16.3752 23.679 16.3752H25.5266C25.4083 15.076 24.9228 13.8372 24.1268 12.8035C23.3307 11.7699 22.257 10.9841 21.031 10.538C19.805 10.0918 18.4774 10.0037 17.2032 10.284C15.929 10.5642 14.7609 11.2012 13.8352 12.1205C12.6842 13.2564 11.9742 14.7644 11.8321 16.3752H13.679C14.1762 16.3752 14.6532 16.5728 15.0048 16.9244C15.3564 17.276 15.554 17.7529 15.554 18.2502V21.3752C15.554 21.8725 15.3564 22.3494 15.0048 22.7011C14.6532 23.0527 14.1762 23.2502 13.679 23.2502H12.429C11.9317 23.2502 11.4548 23.0527 11.1031 22.7011C10.7515 22.3494 10.554 21.8725 10.554 21.3752V17.0002C10.5557 15.3908 11.0349 13.818 11.9309 12.481C12.8269 11.144 14.0994 10.1029 15.5874 9.48949C17.0753 8.87604 18.7119 8.71782 20.2898 9.03486C21.8677 9.35191 23.3161 10.13 24.4516 11.2705C25.2013 12.0239 25.795 12.9178 26.1987 13.901C26.6023 14.8842 26.808 15.9374 26.804 17.0002Z" fill="white"/>
</svg>
