<svg width="175" height="59" viewBox="0 0 175 59" fill="none" xmlns="http://www.w3.org/2000/svg">
<g filter="url(#filter0_d_6_7580)">
<rect x="15.085" y="15" width="144.246" height="28.864" rx="11.7585" fill="#1E1E1E"/>
</g>
<path d="M38.7773 54.3887L47.3938 40.9109L30.1608 40.9109L38.7773 54.3887Z" fill="#1E1E1E"/>
<path d="M36.8759 24.0923C37.6532 24.0923 38.327 24.1743 38.8973 24.3384C39.4716 24.5024 39.913 24.7407 40.2216 25.0532C40.5341 25.3618 40.6923 25.729 40.6962 26.1548C40.6923 26.5728 40.5341 26.9341 40.2216 27.2388C39.913 27.5435 39.4716 27.7759 38.8973 27.936C38.327 28.0962 37.6532 28.1743 36.8759 28.1704C36.1063 28.1743 35.4325 28.0962 34.8544 27.936C34.2802 27.7759 33.8368 27.5435 33.5243 27.2388C33.2118 26.9341 33.0555 26.5728 33.0555 26.1548C33.0555 25.729 33.2118 25.3618 33.5243 25.0532C33.8368 24.7407 34.2802 24.5024 34.8544 24.3384C35.4325 24.1743 36.1063 24.0923 36.8759 24.0923ZM36.8759 25.1118C36.0946 25.1118 35.4872 25.2017 35.0536 25.3813C34.6239 25.561 34.411 25.8188 34.4149 26.1548C34.411 26.4751 34.6239 26.7212 35.0536 26.8931C35.4872 27.0649 36.0946 27.1548 36.8759 27.1626C37.6571 27.1548 38.2645 27.0649 38.6981 26.8931C39.1317 26.7212 39.3485 26.4751 39.3485 26.1548C39.3485 25.8188 39.1317 25.561 38.6981 25.3813C38.2645 25.2017 37.6571 25.1118 36.8759 25.1118ZM40.5438 34.3462H33.1962V30.7837H40.5438V34.3462ZM34.4852 33.2915H39.2782V31.8149H34.4852V33.2915ZM41.7157 29.9399H32.0594V28.8853H41.7157V29.9399ZM46.3094 25.4048C46.3055 25.8931 46.3973 26.354 46.5848 26.7876C46.7723 27.2212 47.0536 27.604 47.4286 27.936C47.8075 28.2642 48.2665 28.5142 48.8055 28.686L48.1024 29.7056C47.5321 29.5063 47.0438 29.2212 46.6376 28.8501C46.2352 28.479 45.9188 28.0376 45.6884 27.5259C45.4501 28.1157 45.1083 28.6274 44.663 29.061C44.2177 29.4907 43.6805 29.8149 43.0516 30.0337L42.3602 28.979C42.9305 28.7915 43.413 28.52 43.8075 28.1646C44.202 27.8091 44.4989 27.3989 44.6981 26.9341C44.8973 26.4692 44.9969 25.979 44.9969 25.4634V24.4556H46.3094V25.4048ZM51.3016 30.1157H50.0009V26.9985H47.8915V25.9321H50.0009V23.8813H51.3016V30.1157ZM47.7157 30.397C48.4618 30.397 49.1063 30.4771 49.6493 30.6372C50.1962 30.7974 50.6141 31.0317 50.9032 31.3403C51.1923 31.645 51.3368 32.0103 51.3368 32.436C51.3368 32.8618 51.1923 33.2271 50.9032 33.5317C50.6141 33.8364 50.1981 34.0669 49.6552 34.2231C49.1122 34.3833 48.4657 34.4634 47.7157 34.4634C46.9696 34.4634 46.3251 34.3833 45.7821 34.2231C45.243 34.0669 44.829 33.8364 44.5399 33.5317C44.2548 33.2271 44.1141 32.8618 44.118 32.436C44.1141 32.0103 44.2548 31.645 44.5399 31.3403C44.829 31.0317 45.245 30.7974 45.788 30.6372C46.3309 30.4771 46.9735 30.397 47.7157 30.397ZM47.7157 31.4048C46.9735 31.4048 46.4032 31.4946 46.0048 31.6743C45.6063 31.8501 45.4071 32.104 45.4071 32.436C45.4071 32.7603 45.6063 33.0103 46.0048 33.186C46.4071 33.3579 46.9774 33.4438 47.7157 33.4438C48.454 33.4438 49.0243 33.356 49.4266 33.1802C49.8329 33.0044 50.036 32.7563 50.036 32.436C50.036 32.104 49.8348 31.8501 49.4325 31.6743C49.0302 31.4946 48.4579 31.4048 47.7157 31.4048ZM57.618 24.479C58.3602 24.479 59.0321 24.604 59.6337 24.854C60.2352 25.1001 60.7079 25.4497 61.0516 25.9028C61.3954 26.356 61.5673 26.8774 61.5673 27.4673C61.5673 28.0649 61.3954 28.5923 61.0516 29.0493C60.7079 29.5024 60.2352 29.854 59.6337 30.104C59.036 30.354 58.3641 30.479 57.618 30.479C56.8759 30.479 56.2059 30.354 55.6083 30.104C55.0106 29.854 54.5399 29.5024 54.1962 29.0493C53.8563 28.5923 53.6884 28.0649 53.6923 27.4673C53.6884 26.8774 53.8563 26.356 54.1962 25.9028C54.5399 25.4497 55.0106 25.1001 55.6083 24.854C56.2059 24.604 56.8759 24.479 57.618 24.479ZM57.618 25.5337C57.1102 25.5298 56.6532 25.6079 56.2469 25.7681C55.8407 25.9282 55.5223 26.1567 55.2919 26.4536C55.0614 26.7466 54.9462 27.0845 54.9462 27.4673C54.9462 27.8579 55.0614 28.2017 55.2919 28.4985C55.5223 28.7915 55.8387 29.0181 56.2411 29.1782C56.6473 29.3345 57.1063 29.4126 57.618 29.4126C58.1337 29.4126 58.5927 29.3345 58.995 29.1782C59.4012 29.0181 59.7177 28.7915 59.9442 28.4985C60.1747 28.2017 60.2899 27.8579 60.2899 27.4673C60.2899 27.0845 60.1747 26.7466 59.9442 26.4536C59.7177 26.1567 59.4012 25.9282 58.995 25.7681C58.5887 25.6079 58.1298 25.5298 57.618 25.5337ZM62.4813 33.1392H52.8016V32.0728H62.4813V33.1392ZM72.8524 33.2446H63.1727V32.1665H67.3446V30.4438H64.3212V26.9751H70.4149V25.6626H64.2977V24.6079H71.704V28.0063H65.6219V29.3774H71.9501V30.4438H68.6337V32.1665H72.8524V33.2446ZM81.8759 24.5259C81.8719 25.4282 81.6766 26.2427 81.2899 26.9692C80.9071 27.6919 80.3524 28.311 79.6259 28.8267C78.8993 29.3423 78.0204 29.7446 76.9891 30.0337L76.4618 29.0142C77.6415 28.6899 78.5751 28.231 79.2626 27.6372C79.954 27.0435 80.3602 26.3579 80.4813 25.5806H77.036V24.5259H81.8759ZM85.2626 29.8579H83.9618V27.5493H81.9227V26.4829H83.9618V23.8931H85.2626V29.8579ZM85.2626 34.3345H78.2899V30.2798H85.2626V34.3345ZM79.5673 33.3032H83.9735V31.311H79.5673V33.3032ZM90.0673 25.8032C90.0673 26.2095 90.1415 26.6001 90.2899 26.9751C90.4423 27.3501 90.6727 27.688 90.9813 27.9888C91.2899 28.2896 91.6688 28.5298 92.118 28.7095L91.4149 29.7056C90.9618 29.522 90.5692 29.2661 90.2372 28.938C89.9091 28.6099 89.6473 28.2271 89.452 27.7896C89.2489 28.2856 88.9716 28.7231 88.62 29.1021C88.2684 29.481 87.8485 29.7759 87.3602 29.9868L86.6688 28.979C87.1337 28.772 87.5262 28.4985 87.8466 28.1587C88.1669 27.8149 88.4071 27.4399 88.5673 27.0337C88.7274 26.6274 88.8094 26.2173 88.8134 25.8032V24.5142H90.0673V25.8032ZM95.8212 30.3032H94.579V27.6079H93.5243V30.2446H92.3055V24.0688H93.5243V26.5298H94.579V23.8931H95.8212V30.3032ZM95.8212 34.4751H94.5204V31.8501H88.5673V30.8071H95.8212V34.4751ZM102.302 26.6118H97.1102V25.5688H99.079V24.186H100.368V25.5688H102.302V26.6118ZM99.7235 27.1743C100.169 27.1743 100.565 27.2798 100.913 27.4907C101.265 27.6978 101.538 27.9888 101.733 28.3638C101.932 28.7388 102.032 29.1626 102.032 29.6353C102.032 30.1157 101.932 30.5454 101.733 30.9243C101.538 31.3032 101.265 31.6001 100.913 31.8149C100.565 32.0259 100.169 32.1313 99.7235 32.1313C99.2821 32.1313 98.8856 32.0259 98.5341 31.8149C98.1825 31.6001 97.9071 31.3032 97.7079 30.9243C97.5087 30.5454 97.411 30.1157 97.4149 29.6353C97.411 29.1626 97.5087 28.7388 97.7079 28.3638C97.9071 27.9888 98.1825 27.6978 98.5341 27.4907C98.8856 27.2798 99.2821 27.1743 99.7235 27.1743ZM99.7235 28.2524C99.493 28.2524 99.2899 28.311 99.1141 28.4282C98.9384 28.5415 98.8016 28.7036 98.704 28.9146C98.6063 29.1216 98.5594 29.3618 98.5634 29.6353C98.5594 29.9165 98.6063 30.1626 98.704 30.3735C98.8016 30.5845 98.9384 30.7466 99.1141 30.8599C99.2899 30.9692 99.493 31.022 99.7235 31.0181C99.9501 31.022 100.151 30.9692 100.327 30.8599C100.503 30.7466 100.64 30.5845 100.737 30.3735C100.835 30.1626 100.884 29.9165 100.884 29.6353C100.884 29.3618 100.835 29.1216 100.737 28.9146C100.64 28.7036 100.503 28.5415 100.327 28.4282C100.151 28.311 99.9501 28.2524 99.7235 28.2524ZM106.239 34.4751H104.997V29.2954H103.966V33.9946H102.747V24.104H103.966V28.2407H104.997V23.8813H106.239V34.4751ZM117.184 33.1978H107.505V32.1313H111.677V30.0688H108.571V24.5845H109.872V26.3188H114.782V24.5845H116.083V30.0688H112.966V32.1313H117.184V33.1978ZM114.782 29.0142V27.3618H109.872V29.0142H114.782ZM121.181 26.6587C121.181 27.2524 121.251 27.8286 121.391 28.3872C121.536 28.9458 121.761 29.4575 122.065 29.9224C122.37 30.3872 122.751 30.7642 123.208 31.0532L122.493 32.0493C122.032 31.772 121.641 31.4009 121.321 30.936C121.001 30.4673 120.749 29.9302 120.565 29.3247C120.366 29.9849 120.095 30.5708 119.751 31.0825C119.407 31.5942 118.993 31.9985 118.509 32.2954L117.7 31.3228C118.196 31.022 118.61 30.6274 118.942 30.1392C119.274 29.6509 119.52 29.1138 119.681 28.5278C119.845 27.9419 119.927 27.3384 119.927 26.7173V24.8188H121.181V26.6587ZM127.016 34.4751H125.763V23.8813H127.016V34.4751ZM124.813 33.9595H123.583V28.604H122.071V27.5259H123.583V24.0688H124.813V33.9595ZM137.927 33.186H128.247V32.1196H130.485V29.4419C130.056 29.1919 129.722 28.8813 129.483 28.5103C129.249 28.1392 129.134 27.7212 129.138 27.2563C129.134 26.7056 129.3 26.2173 129.636 25.7915C129.972 25.3657 130.438 25.0376 131.036 24.8071C131.634 24.5728 132.309 24.4556 133.063 24.4556C133.821 24.4556 134.499 24.5728 135.097 24.8071C135.698 25.0376 136.167 25.3657 136.503 25.7915C136.843 26.2134 137.013 26.7017 137.013 27.2563C137.013 27.7095 136.897 28.1216 136.667 28.4927C136.44 28.8599 136.118 29.1665 135.7 29.4126V32.1196H137.927V33.186ZM133.063 25.4868C132.536 25.4868 132.071 25.5591 131.669 25.7036C131.27 25.8442 130.96 26.0474 130.737 26.313C130.518 26.5786 130.411 26.8931 130.415 27.2563C130.411 27.6157 130.518 27.9282 130.737 28.1938C130.96 28.4595 131.272 28.6646 131.675 28.8091C132.077 28.9536 132.54 29.0259 133.063 29.0259C133.587 29.0259 134.05 28.9536 134.452 28.8091C134.858 28.6646 135.173 28.4595 135.395 28.1938C135.622 27.9282 135.735 27.6157 135.735 27.2563C135.735 26.897 135.622 26.5845 135.395 26.3188C135.173 26.0493 134.86 25.8442 134.458 25.7036C134.056 25.5591 133.591 25.4868 133.063 25.4868ZM134.376 32.1196V29.9106C133.962 30.0005 133.524 30.0454 133.063 30.0454C132.622 30.0454 132.192 30.0024 131.774 29.9165V32.1196H134.376ZM140.669 30.936H139.345L139.204 24.9478H140.798L140.669 30.936ZM140.013 33.5259C139.849 33.5259 139.696 33.4849 139.556 33.4028C139.415 33.3208 139.304 33.2095 139.222 33.0688C139.14 32.9282 139.099 32.7759 139.099 32.6118C139.099 32.4517 139.14 32.3032 139.222 32.1665C139.304 32.0259 139.415 31.9146 139.556 31.8325C139.696 31.7505 139.849 31.7095 140.013 31.7095C140.169 31.7095 140.315 31.7505 140.452 31.8325C140.593 31.9146 140.704 32.0259 140.786 32.1665C140.872 32.3032 140.915 32.4517 140.915 32.6118C140.915 32.7759 140.872 32.9282 140.786 33.0688C140.704 33.2095 140.593 33.3208 140.452 33.4028C140.315 33.4849 140.169 33.5259 140.013 33.5259Z" fill="white"/>
<defs>
<filter id="filter0_d_6_7580" x="0.0849609" y="0" width="174.246" height="58.8643" filterUnits="userSpaceOnUse" color-interpolation-filters="sRGB">
<feFlood flood-opacity="0" result="BackgroundImageFix"/>
<feColorMatrix in="SourceAlpha" type="matrix" values="0 0 0 0 0 0 0 0 0 0 0 0 0 0 0 0 0 0 127 0" result="hardAlpha"/>
<feOffset/>
<feGaussianBlur stdDeviation="7.5"/>
<feComposite in2="hardAlpha" operator="out"/>
<feColorMatrix type="matrix" values="0 0 0 0 0 0 0 0 0 0 0 0 0 0 0 0 0 0 0.08 0"/>
<feBlend mode="normal" in2="BackgroundImageFix" result="effect1_dropShadow_6_7580"/>
<feBlend mode="normal" in="SourceGraphic" in2="effect1_dropShadow_6_7580" result="shape"/>
</filter>
</defs>
</svg>
