<svg width="390" height="146" viewBox="0 0 390 146" fill="none" xmlns="http://www.w3.org/2000/svg">
<path fill-rule="evenodd" clip-rule="evenodd" d="M246.718 24.804C206.39 -15.7685 167.604 0.472093 143.376 23.7013C133.923 32.7645 129.196 37.296 126.337 39.0202C122.761 41.177 121.513 41.6783 117.439 42.5965C114.183 43.3305 109.923 43.3305 101.405 43.3305H47.4C31.1643 43.3305 23.0464 43.3305 16.8018 46.3896C10.8229 49.3187 5.98823 54.1534 3.05919 60.1323C1.53558e-05 66.3768 1.52267e-05 74.4947 1.49684e-05 90.7305L0 146H390V90.7305C390 74.4947 390 66.3768 386.941 60.1323C384.012 54.1534 379.177 49.3187 373.198 46.3896C366.954 43.3305 358.836 43.3305 342.6 43.3305H286.495C278.277 43.3305 274.168 43.3305 270.813 42.5497C266.938 41.6478 265.055 40.8646 261.683 38.7517C258.764 36.9226 254.749 32.883 246.718 24.804Z" fill="white"/>
</svg>
